<svg width="30" height="30" viewBox="0 0 30 30" fill="none" xmlns="http://www.w3.org/2000/svg">
<path d="M28.5632 7.04369C28.6014 6.41674 28.4197 5.79609 28.0494 5.28875C27.6791 4.78142 27.1434 4.41918 26.5346 4.2645C25.7404 4.17016 24.9407 4.12946 24.1411 4.14268V5.84668C24.1241 6.21031 24.0208 6.56468 23.8397 6.88046C23.6586 7.19624 23.4049 7.46435 23.0996 7.66259C22.7943 7.86083 22.4461 7.98351 22.084 8.02047C21.7218 8.05743 21.3561 8.00761 21.017 7.87513C20.5835 7.69266 20.2145 7.38447 19.9578 6.99032C19.7011 6.59617 19.5683 6.13414 19.5767 5.66383V4.12244H10.4075V5.23815C10.428 5.50815 10.428 5.77964 10.4075 6.04979C10.2693 7.30244 9.14568 8.20859 7.89216 8.07807C6.70024 7.92209 5.82216 6.88575 5.86355 5.6844V4.16307H3.83524C3.71403 4.14687 3.59121 4.14687 3.47 4.16307C2.8758 4.32952 2.3539 4.68901 1.9866 5.18486C1.61929 5.68071 1.42748 6.28471 1.44139 6.90163V25.5846C1.41102 25.9568 1.45651 26.3313 1.57512 26.6854C1.69372 27.0395 1.88297 27.3659 2.13139 27.6447C2.37989 27.9235 2.68239 28.1489 3.02056 28.3073C3.35874 28.4658 3.72556 28.5539 4.0988 28.5664H25.7028C26.0904 28.5785 26.4763 28.5094 26.8356 28.3635C27.1948 28.2175 27.5196 27.9981 27.789 27.7191C28.0584 27.4402 28.2664 27.1079 28.3997 26.7438C28.533 26.3796 28.5886 25.9916 28.563 25.6047V7.04369H28.5632ZM26.7782 13.3726V24.6106C26.7772 24.8782 26.7147 25.142 26.5955 25.3816C26.5155 25.5172 26.3987 25.6273 26.2587 25.6991C26.1187 25.7709 25.9611 25.8015 25.8044 25.7874H4.17995C4.03367 25.8048 3.88534 25.7881 3.7466 25.7386C3.60787 25.689 3.48249 25.608 3.3803 25.5019C3.27812 25.3958 3.2019 25.2675 3.15763 25.127C3.11336 24.9865 3.10224 24.8376 3.12514 24.6921V11.689H26.7576L26.7782 13.3726Z" fill="#436D00"/>
<path d="M8.13558 6.98279C8.31854 6.97764 8.49864 6.93609 8.66537 6.86058C8.8321 6.78507 8.98213 6.6771 9.10668 6.54298C9.23134 6.40899 9.32807 6.25151 9.39122 6.07974C9.45437 5.90796 9.48268 5.72533 9.4745 5.5425V2.82419C9.51184 2.47168 9.41796 2.11779 9.2108 1.83014C9.03152 1.62431 8.79192 1.48021 8.52606 1.41833C8.2602 1.35644 7.9816 1.37993 7.72984 1.48544C7.44993 1.57292 7.20583 1.74859 7.03399 1.98623C6.86215 2.22387 6.77179 2.51072 6.77641 2.80394V5.56289C6.77097 5.93066 6.91051 6.2858 7.16485 6.55151C7.41918 6.81722 7.76788 6.97214 8.13555 6.98279H8.13558ZM21.7676 6.98279C21.9505 6.9776 22.1306 6.93605 22.2974 6.86054C22.4641 6.78503 22.6141 6.67708 22.7387 6.54298C22.8633 6.40898 22.96 6.2515 23.0231 6.07972C23.0863 5.90794 23.1146 5.72532 23.1063 5.5425V2.82419C23.1152 2.45851 22.9847 2.10315 22.7412 1.83014C22.562 1.62431 22.3224 1.48021 22.0565 1.41833C21.7906 1.35644 21.512 1.37993 21.2603 1.48544C21.0027 1.58891 20.7829 1.76879 20.6306 2.00089C20.4783 2.233 20.4007 2.50618 20.4083 2.7837V5.5425C20.3974 5.9138 20.5345 6.27421 20.7893 6.54451C21.0444 6.8145 21.3963 6.97214 21.7676 6.98279H21.7676ZM21.3416 21.1015H24.9117V23.8605H21.3416V21.1015H21.3416ZM15.8846 21.1015H19.4549V23.8605H15.8846V21.1015V21.1015ZM10.4279 23.8603H14.0184V21.0607H10.4279V23.8603V23.8603ZM4.97119 21.1015H8.54148V23.8605H4.97119V21.1015V21.1015ZM21.3416 17.3282H24.9118V20.0871H21.3416V17.3282H21.3416ZM15.8846 17.3486H19.4549V20.1075H15.8846V17.3486V17.3486ZM10.4279 17.3486H13.998V20.1075H10.4279V17.3486H10.4279ZM8.56158 17.3486H4.99129V20.1075H8.56158V17.3486V17.3486ZM21.3213 13.596H24.8916V16.3547H21.3213V13.596V13.596ZM15.8846 13.596H19.4549V16.3547H15.8846V13.596V13.596ZM14.0184 13.596H10.4279V16.3547H14.0184V13.596V13.596Z" fill="#436D00"/>
</svg>
