<svg width="30" height="30" viewBox="0 0 30 30" fill="none" xmlns="http://www.w3.org/2000/svg">
<g clip-path="url(#clip0_23_253)">
<path fill-rule="evenodd" clip-rule="evenodd" d="M15 0C23.2837 0 30 6.71631 30 15C30 23.2837 23.2837 30 15 30C6.71631 30 0 23.2837 0 15C0 6.71631 6.71631 0 15 0ZM12.9199 7.45117H14.7534C15.0879 7.45117 15.3638 7.72705 15.3638 8.06152V15.127H21.8115C22.1484 15.127 22.4219 15.4028 22.4219 15.7373V17.5708C22.4219 17.9077 22.146 18.1812 21.8115 18.1812H12.3071V8.06152C12.3071 7.72461 12.583 7.45117 12.9199 7.45117ZM15 3.40576C21.4038 3.40576 26.5942 8.59619 26.5942 15C26.5942 21.4038 21.4038 26.5942 15 26.5942C8.59619 26.5942 3.40576 21.4038 3.40576 15C3.40576 8.59863 8.59619 3.40576 15 3.40576Z" fill="#436D00"/>
</g>
<defs>
<clipPath id="clip0_23_253">
<rect width="30" height="30" fill="white"/>
</clipPath>
</defs>
</svg>
